<?xml version="1.0"?>
<svg xmlns="http://www.w3.org/2000/svg" xmlns:xlink="http://www.w3.org/1999/xlink" version="1.1" id="Capa_1" x="0px" y="0px" viewBox="0 0 512 512" style="enable-background:new 0 0 512 512;" xml:space="preserve" width="512px" height="512px" class=""><g><g>
	<g>
		<path d="M45,0C20.186,0,0,20.186,0,45v195h240V0H45z M195,150h-45v45c0,8.291-6.709,15-15,15s-15-6.709-15-15v-45H75    c-8.291,0-15-6.709-15-15s6.709-15,15-15h45V75c0-8.291,6.709-15,15-15s15,6.709,15,15v45h45c8.291,0,15,6.709,15,15    S203.291,150,195,150z" data-original="#000000" class="active-path" data-old_color="#A9A6A6" fill="#AAAAAA"/>
	</g>
</g><g>
	<g>
		<path d="M467,0H272v240h240V45C512,20.186,491.814,0,467,0z M437,150H317c-8.291,0-15-6.709-15-15s6.709-15,15-15h120    c8.291,0,15,6.709,15,15S445.291,150,437,150z" data-original="#000000" class="active-path" data-old_color="#A9A6A6" fill="#AAAAAA"/>
	</g>
</g><g>
	<g>
		<path d="M0,272v195c0,24.814,20.186,45,45,45h195V272H0z M188.027,408.816c5.859,5.859,5.859,15.352,0,21.211    c-5.859,5.859-15.352,5.859-21.211,0L135,398.211l-31.816,31.816c-5.859,5.859-15.352,5.859-21.211,0s-5.859-15.352,0-21.211    L113.789,377l-31.816-31.816c-5.859-5.859-5.859-15.352,0-21.211s15.352-5.859,21.211,0L135,355.789l31.816-31.816    c5.859-5.859,15.352-5.859,21.211,0c5.859,5.859,5.859,15.352,0,21.211L156.211,377L188.027,408.816z" data-original="#000000" class="active-path" data-old_color="#A9A6A6" fill="#AAAAAA"/>
	</g>
</g><g>
	<g>
		<path d="M272,272v240h195c24.814,0,45-20.186,45-45V272H272z M437,422H317c-8.291,0-15-6.709-15-15c0-8.291,6.709-15,15-15h120    c8.291,0,15,6.709,15,15C452,415.291,445.291,422,437,422z M437,362H317c-8.291,0-15-6.709-15-15c0-8.291,6.709-15,15-15h120    c8.291,0,15,6.709,15,15C452,355.291,445.291,362,437,362z" data-original="#000000" class="active-path" data-old_color="#A9A6A6" fill="#AAAAAA"/>
	</g>
</g></g> </svg>
